<?xml version="1.0" encoding="UTF-8" standalone="no"?>
<!-- Generator: Adobe Illustrator 26.5.0, SVG Export Plug-In . SVG Version: 6.00 Build 0)  -->

<svg
   version="1.1"
   id="Layer_1"
   x="0px"
   y="0px"
   viewBox="0 0 435.2 435.2"
   style="enable-background:new 0 0 435.2 435.2;"
   xml:space="preserve"
   sodipodi:docname="icon_foreground.svg"
   inkscape:version="1.2.2 (b0a8486541, 2022-12-01)"
   xmlns:inkscape="http://www.inkscape.org/namespaces/inkscape"
   xmlns:sodipodi="http://sodipodi.sourceforge.net/DTD/sodipodi-0.dtd"
   xmlns="http://www.w3.org/2000/svg"
   xmlns:svg="http://www.w3.org/2000/svg"><defs
   id="defs3789" /><sodipodi:namedview
   id="namedview3787"
   pagecolor="#ffffff"
   bordercolor="#000000"
   borderopacity="0.25"
   inkscape:showpageshadow="2"
   inkscape:pageopacity="0.0"
   inkscape:pagecheckerboard="0"
   inkscape:deskcolor="#d1d1d1"
   showgrid="false"
   inkscape:zoom="0.90188417"
   inkscape:cx="251.69529"
   inkscape:cy="254.46727"
   inkscape:window-width="1854"
   inkscape:window-height="1011"
   inkscape:window-x="0"
   inkscape:window-y="0"
   inkscape:window-maximized="1"
   inkscape:current-layer="Layer_1" />
<style
   type="text/css"
   id="style3773">
	.st0{fill:#0078F2;}
	.st1{fill:#8DBEFF;}
</style>
<g
   id="Layer_30"
   transform="matrix(2.5493077,0,0,2.5493077,-337.12935,-337.20681)">
</g>
<path
   class="st0"
   d="M 322.37654,210.6394 V 84.448675 c 0,-6.883131 -5.60847,-12.491607 -12.4916,-12.491607 -6.88313,0 -12.49161,5.608476 -12.49161,12.491607 V 210.6394 H 137.55174 v -57.35942 c 0,-6.88313 -5.60848,-12.49161 -12.49161,-12.49161 -6.88313,0 -12.49161,5.60848 -12.49161,12.49161 v 57.35942 c -16.825426,0.7648 -29.826895,14.78599 -30.081826,31.61142 v 75.45951 c 0,16.82543 13.2564,30.59169 30.081826,31.61141 v 1.52958 c 0,6.88314 5.60848,12.49161 12.49161,12.49161 6.88313,0 12.49161,-5.60847 12.49161,-12.49161 v -1.52958 h 160.09652 v 1.52958 c 0,6.88314 5.60848,12.49161 12.49161,12.49161 6.88313,0 12.49161,-5.60847 12.49161,-12.49161 v -1.52958 c 16.82543,-0.76479 29.82689,-14.78598 30.08183,-31.61141 v -75.45951 c -0.25494,-16.82543 -13.51133,-30.59169 -30.33677,-31.61142 z"
   id="path3776"
   style="stroke-width:2.54931;fill:#00c718;fill-opacity:1" />
<path
   class="st1"
   d="m 281.84255,292.21725 h -78.51867 c -6.88313,0 -12.49161,-5.60848 -12.49161,-12.49161 0,-6.88313 5.60848,-12.49161 12.49161,-12.49161 h 78.51867 c 6.88313,0 12.49161,5.60848 12.49161,12.49161 0,6.88313 -5.60848,12.49161 -12.49161,12.49161 z"
   id="path3778"
   style="stroke-width:2.54931;fill:#8dff9c;fill-opacity:1" />
<path
   class="st1"
   d="m 148.76869,292.21725 h -1.52958 c -6.88313,0 -12.49161,-5.60848 -12.49161,-12.49161 0,-6.88313 5.60848,-12.49161 12.49161,-12.49161 h 1.52958 c 6.88313,0 12.49161,5.60848 12.49161,12.49161 0,6.88313 -5.86341,12.49161 -12.49161,12.49161 z"
   id="path3780"
   style="stroke-width:2.54931;fill:#8dff9c;fill-opacity:1" />
<path
   class="st0"
   d="m 217.6,153.02505 c -13.51133,0 -26.25787,6.6282 -33.90579,18.10009 -3.82396,5.60847 -2.54931,13.51133 3.3141,17.33529 2.03944,1.27465 4.58875,2.03944 7.13806,2.03944 4.07889,0 7.90285,-2.03944 10.19723,-5.35354 5.09862,-7.39299 15.04092,-9.43244 22.43391,-4.33383 1.78451,1.01973 3.05917,2.54931 4.33382,4.33383 2.29438,3.3141 6.11834,5.35354 10.19723,5.35354 2.54931,0 4.84369,-0.76479 7.13806,-2.03944 5.60848,-3.82396 7.13806,-11.72682 3.3141,-17.33529 C 243.85787,159.65325 231.11133,153.02505 217.6,153.02505 Z"
   id="path3782"
   style="stroke-width:2.54931;fill:#00c71b;fill-opacity:1" />
<path
   class="st0"
   d="m 281.33269,146.14192 c -23.96349,-35.18045 -71.89047,-44.35795 -107.07092,-20.39446 -7.90285,5.35355 -14.78598,12.23668 -20.39446,20.39446 -3.82396,5.60848 -2.54931,13.51133 3.3141,17.33529 2.03944,1.52959 4.58875,2.29438 7.13806,2.29438 4.07889,0 7.90285,-2.03945 10.19723,-5.35355 16.31557,-23.70856 48.69178,-30.08183 72.40034,-13.76626 5.35354,3.56903 10.19723,8.41272 13.76626,13.76626 3.82396,5.60848 11.47188,7.13806 17.33529,3.56903 5.60848,-4.07889 7.13806,-11.72681 3.3141,-17.84515 0,0.25493 0,0.25493 0,0 z"
   id="path3784"
   style="stroke-width:2.54931;fill:#00c71b;fill-opacity:1" />
</svg>
